<?xml version="1.0" standalone="no"?>
<!DOCTYPE svg PUBLIC "-//W3C//DTD SVG 20010904//EN"
 "http://www.w3.org/TR/2001/REC-SVG-20010904/DTD/svg10.dtd">
<svg version="1.0" xmlns="http://www.w3.org/2000/svg"
 width="128.000000pt" height="128.000000pt" viewBox="0 0 128.000000 128.000000"
 preserveAspectRatio="xMidYMid meet">

<g transform="translate(0.000000,128.000000) scale(0.100000,-0.100000)"
fill="#000000" stroke="none">
<path d="M295 1244 c-52 -19 -123 -89 -137 -136 -6 -21 -22 -45 -35 -53 -31
-21 -33 -89 -3 -107 17 -11 20 -24 20 -76 0 -53 4 -67 25 -87 13 -14 32 -25
43 -25 10 0 28 -11 40 -25 12 -14 26 -25 32 -25 17 0 11 -30 -7 -37 -168 -56
-274 -220 -249 -386 8 -52 46 -115 87 -143 26 -17 29 -25 29 -71 l0 -53 300 0
300 0 0 80 0 80 30 0 c23 0 33 -6 42 -26 13 -28 55 -54 88 -54 32 0 75 26 87
53 11 23 18 25 91 28 68 4 84 8 116 33 36 27 66 77 66 110 0 10 -12 16 -34 18
l-34 3 33 83 c32 78 32 83 15 92 -16 9 -23 -1 -57 -87 l-38 -97 -3 122 c-2
114 -4 122 -22 122 -19 0 -20 8 -20 160 l0 160 -40 0 -40 0 0 40 c0 33 -3 40
-20 40 -17 0 -20 -7 -20 -40 0 -33 -3 -40 -20 -40 -18 0 -20 7 -20 60 0 53 -2
60 -20 60 -18 0 -20 -7 -20 -60 0 -53 -2 -60 -20 -60 -17 0 -20 7 -20 40 0 33
-3 40 -20 40 -17 0 -20 -7 -20 -40 l0 -40 -40 0 -40 0 0 -120 0 -120 -40 0
-40 0 0 -52 0 -52 -37 36 c-21 21 -64 49 -95 63 -32 15 -58 33 -58 41 0 8 5
14 10 14 6 0 20 11 32 25 12 14 30 25 40 25 11 0 30 11 43 25 21 20 25 34 25
87 0 52 3 65 20 76 31 19 28 86 -4 108 -14 8 -28 29 -31 44 -4 16 -26 52 -51
79 -68 75 -164 100 -259 65z m105 -104 c0 -73 -2 -80 -20 -80 -18 0 -20 7 -20
80 0 73 2 80 20 80 18 0 20 -7 20 -80z m-80 -5 l0 -75 -65 0 c-69 0 -74 4 -51
48 19 36 89 99 114 102 1 0 2 -34 2 -75z m201 18 c28 -30 49 -65 49 -82 0 -7
-26 -11 -65 -11 l-65 0 0 75 0 76 28 -15 c15 -8 39 -27 53 -43z m99 -153 c0
-19 -7 -20 -240 -20 -233 0 -240 1 -240 20 0 19 7 20 240 20 233 0 240 -1 240
-20z m-120 -140 c0 -109 -11 -120 -120 -120 -109 0 -120 11 -120 120 l0 80
120 0 120 0 0 -80z m-280 -20 c0 -41 -7 -49 -28 -28 -15 15 -15 41 0 56 21 21
28 13 28 -28z m354 17 c8 -12 8 -22 0 -34 -21 -33 -34 -26 -34 17 0 43 13 50
34 17z m486 -137 l0 -140 -60 0 -60 0 0 40 0 40 -80 0 -80 0 0 100 0 100 140
0 140 0 0 -140z m-628 -37 c4 -18 -38 -93 -52 -93 -14 0 -56 75 -52 93 3 13
14 17 52 17 38 0 49 -4 52 -17z m-152 -248 c0 -170 -2 -195 -16 -195 -49 0
-84 54 -84 130 0 43 -3 50 -20 50 -18 0 -20 -7 -20 -56 0 -64 22 -118 56 -141
13 -8 45 -20 71 -27 38 -10 49 -17 51 -35 4 -23 2 -23 -66 -19 -88 5 -139 36
-172 103 -54 112 11 285 132 355 29 16 56 30 61 30 4 0 7 -88 7 -195z m270
163 c30 -18 67 -51 83 -73 26 -37 28 -47 25 -115 l-3 -75 -38 98 c-34 86 -41
96 -57 87 -17 -9 -17 -14 15 -92 l33 -83 -34 -3 c-27 -3 -34 -7 -34 -25 0 -12
9 -37 20 -55 16 -26 20 -50 20 -117 l0 -85 -50 0 c-43 0 -50 3 -50 20 0 11 5
20 12 20 21 0 48 33 48 58 0 28 -26 62 -47 62 -10 0 -13 40 -13 205 0 113 4
205 8 205 4 0 32 -15 62 -32z m350 -118 l0 -140 -100 0 -100 0 0 140 0 140
100 0 100 0 0 -140z m-560 80 c8 -16 7 -26 -5 -42 -15 -22 -15 -21 -15 20 0
47 4 51 20 22z m100 -22 c0 -41 0 -42 -15 -20 -12 16 -13 26 -5 42 16 29 20
25 20 -22z m660 -98 l0 -100 -80 0 -80 0 0 100 0 100 80 0 80 0 0 -100z m-686
26 c23 -31 26 -43 26 -120 l0 -86 -33 0 c-21 0 -41 -8 -52 -20 -10 -11 -22
-20 -27 -20 -4 0 -8 48 -8 106 0 98 2 108 26 140 15 19 30 34 34 34 4 0 19
-15 34 -34z m784 -188 c-36 -56 -174 -81 -213 -38 -26 29 -144 29 -170 0 -39
-43 -177 -18 -213 38 l-14 22 312 0 312 0 -14 -22z m-761 -77 c3 -12 15 -21
32 -23 15 -2 26 -9 26 -18 0 -12 -15 -16 -67 -18 l-68 -3 0 30 c0 46 66 73 77
32z m519 5 c15 -39 -44 -79 -84 -57 -23 12 -37 45 -27 61 10 16 105 12 111 -4z
m-256 -88 l0 -58 -40 0 -40 0 0 69 0 68 40 -10 40 -11 0 -58z m-420 -39 c0
-16 -8 -19 -50 -19 -45 0 -50 2 -50 23 0 20 4 22 50 19 41 -3 50 -7 50 -23z
m160 1 c0 -18 -7 -20 -60 -20 -53 0 -60 2 -60 20 0 18 7 20 60 20 53 0 60 -2
60 -20z"/>
<path d="M820 800 c0 -13 7 -20 20 -20 13 0 20 7 20 20 0 13 -7 20 -20 20 -13
0 -20 -7 -20 -20z"/>
<path d="M900 800 c0 -13 7 -20 20 -20 13 0 20 7 20 20 0 13 -7 20 -20 20 -13
0 -20 -7 -20 -20z"/>
<path d="M980 800 c0 -13 7 -20 20 -20 13 0 20 7 20 20 0 13 -7 20 -20 20 -13
0 -20 -7 -20 -20z"/>
<path d="M820 720 c0 -13 7 -20 20 -20 13 0 20 7 20 20 0 13 -7 20 -20 20 -13
0 -20 -7 -20 -20z"/>
<path d="M900 720 c0 -13 7 -20 20 -20 13 0 20 7 20 20 0 13 -7 20 -20 20 -13
0 -20 -7 -20 -20z"/>
<path d="M980 720 c0 -13 7 -20 20 -20 13 0 20 7 20 20 0 13 -7 20 -20 20 -13
0 -20 -7 -20 -20z"/>
<path d="M980 640 c0 -13 7 -20 20 -20 13 0 20 7 20 20 0 13 -7 20 -20 20 -13
0 -20 -7 -20 -20z"/>
<path d="M740 480 c0 -93 1 -100 20 -100 19 0 20 7 20 100 0 93 -1 100 -20
100 -19 0 -20 -7 -20 -100z"/>
<path d="M820 480 c0 -93 1 -100 20 -100 19 0 20 7 20 100 0 93 -1 100 -20
100 -19 0 -20 -7 -20 -100z"/>
<path d="M980 480 c0 -17 7 -20 40 -20 33 0 40 3 40 20 0 17 -7 20 -40 20 -33
0 -40 -3 -40 -20z"/>
<path d="M980 400 c0 -17 7 -20 40 -20 33 0 40 3 40 20 0 17 -7 20 -40 20 -33
0 -40 -3 -40 -20z"/>
</g>
</svg>
