<?xml version="1.0" standalone="no"?>
<!DOCTYPE svg PUBLIC "-//W3C//DTD SVG 20010904//EN"
 "http://www.w3.org/TR/2001/REC-SVG-20010904/DTD/svg10.dtd">
<svg version="1.0" xmlns="http://www.w3.org/2000/svg"
 width="128.000000pt" height="128.000000pt" viewBox="0 0 128.000000 128.000000"
 preserveAspectRatio="xMidYMid meet">

<g transform="translate(0.000000,128.000000) scale(0.100000,-0.100000)"
fill="#000000" stroke="none">
<path d="M318 980 c-32 -17 -58 -40 -45 -40 8 0 97 52 97 56 0 8 -15 3 -52
-16z"/>
<path d="M392 955 c-54 -17 -92 -41 -92 -60 0 -8 16 -33 36 -54 l35 -40 -19
-38 c-11 -21 -22 -55 -26 -75 l-7 -37 -157 -3 -157 -3 1 -31 c2 -48 54 -143
111 -201 35 -36 77 -65 130 -90 76 -37 81 -38 210 -41 107 -2 138 0 163 13 29
15 36 15 69 1 53 -21 211 -21 276 1 115 37 210 125 273 252 33 68 37 83 37
155 0 95 -22 149 -74 181 -18 11 -50 34 -70 52 -28 24 -40 29 -54 22 -22 -13
-22 -35 3 -66 25 -32 28 -145 5 -218 -13 -45 -80 -155 -94 -155 -3 0 -4 35 -3
77 6 120 -29 202 -99 238 -45 24 -129 37 -166 26 -41 -12 -42 -2 -2 44 31 35
33 65 6 65 -25 0 -65 -39 -78 -75 l-13 -34 -47 44 c-42 39 -99 66 -139 64 -8
0 -34 -6 -58 -14z m135 -26 c55 -27 101 -83 84 -103 -15 -18 -95 -46 -130 -46
-39 0 -109 39 -138 77 -23 30 -25 36 -11 49 20 20 85 43 122 44 16 0 49 -9 73
-21z m203 13 c0 -4 -9 -13 -19 -19 -11 -7 -25 -28 -32 -48 -7 -19 -17 -35 -21
-35 -19 0 2 60 32 90 20 20 40 26 40 12z m379 -15 c6 -8 8 -17 4 -20 -7 -8
-33 11 -33 24 0 13 16 11 29 -4z m114 -87 c51 -60 50 -185 -3 -290 -42 -82
-137 -182 -207 -217 -77 -37 -184 -44 -239 -15 l-39 21 30 1 c112 2 262 61
334 132 71 70 96 128 96 223 -1 66 -6 91 -28 139 -15 32 -27 60 -27 62 0 12
61 -29 83 -56z m-72 -12 c35 -78 34 -194 -3 -264 -51 -97 -165 -172 -299 -194
-105 -18 -113 -8 -24 28 197 79 302 227 293 412 -1 38 0 70 3 70 4 0 17 -24
30 -52z m-346 -7 c50 -22 91 -69 105 -119 18 -67 9 -218 -15 -250 -1 -1 -39
-18 -84 -37 l-82 -34 30 34 c59 67 117 189 105 220 -5 13 -46 15 -266 15
l-260 0 7 33 c11 52 39 93 61 88 66 -13 141 -5 194 20 111 53 144 58 205 30z
m-741 -247 c77 -146 223 -244 366 -244 57 0 141 24 196 56 59 35 138 122 171
188 28 57 43 70 43 38 0 -27 -56 -132 -90 -169 -86 -94 -196 -143 -321 -143
-158 0 -313 96 -378 234 -46 99 -35 133 13 40z m712 9 c-53 -106 -153 -189
-261 -218 -160 -42 -337 45 -428 213 l-28 52 371 0 370 0 -24 -47z m-61 -222
c-4 -13 1 -27 14 -40 25 -25 14 -27 -34 -4 l-35 17 27 23 c34 28 36 28 28 4z"/>
<path d="M206 591 c-12 -14 -14 -21 -6 -26 17 -10 47 22 34 35 -7 7 -16 4 -28
-9z"/>
<path d="M585 590 c-25 -27 -10 -39 16 -13 12 11 17 23 11 27 -5 3 -17 -3 -27
-14z"/>
<path d="M382 578 c-14 -14 -16 -38 -4 -38 12 0 32 23 32 37 0 16 -12 17 -28
1z"/>
<path d="M470 505 c-7 -9 -10 -19 -6 -22 8 -9 38 9 44 25 5 17 -23 15 -38 -3z"/>
<path d="M283 495 c-3 -9 -3 -19 1 -22 7 -7 36 16 36 28 0 15 -30 10 -37 -6z"/>
<path d="M615 490 c-25 -27 -10 -39 16 -13 12 11 17 23 11 27 -5 3 -17 -3 -27
-14z"/>
<path d="M382 438 c-14 -14 -16 -38 -4 -38 12 0 32 23 32 37 0 16 -12 17 -28
1z"/>
<path d="M252 895 c0 -16 2 -22 5 -12 2 9 2 23 0 30 -3 6 -5 -1 -5 -18z"/>
<path d="M1200 415 c-8 -9 -8 -15 -2 -15 12 0 26 19 19 26 -2 2 -10 -2 -17
-11z"/>
<path d="M1140 357 c-14 -12 -39 -32 -55 -44 -19 -14 -24 -22 -15 -23 9 0 38
20 65 45 28 24 46 44 40 44 -5 0 -21 -10 -35 -22z"/>
</g>
</svg>
